<svg xmlns="http://www.w3.org/2000/svg" width="1743.052" height="943.593" viewBox="0 0 1307.289 707.695" version="1.2">
  <path d="M.168 705.613h1305.49V.145H.168z" fill="#f0eee8" fill-rule="evenodd"/>
  <path d="M.366 705.33h92.61L25.161 502.887l-24.796-86.4zM0 116.578l381.521-51.336L401.764.25H0zM759.472.25l546.017 187.833V.25zM199.6 686.118l4.904 19.6h1100.985V548.294l-17.089 70.145-385.012 64.77-200.547-81.875-113.285 23.088L243.91 512.734z" fill="#d2e1c3" fill-rule="evenodd"/>
  <path d="M263.814 497.324l339.86 108.457 99.933-10.434 200.035 82.031 381.274-61.694 20.573-85.732V196.18L743.404.25h-334.82z" fill="#f1f1f1" fill-rule="evenodd" stroke="#e6e6e6" stroke-width=".5"/>
  <path d="M35.962 502.25l69.536 203.469h69.356l15.561-15.79 47.965-180.265 77.4-259.812 20.667-37.017-4.254-103.32-59.023 38.501-29.517 58.52-72.715 209.816-40.57-17.953z" fill="#eee" fill-rule="evenodd" stroke="#9e6e6e" stroke-width=".3"/>
  <path d="M549.412 227.082l32.148-64.82-114.39-39.559-134.977-13.187 4.254 103.32 53.238-28.969zm0 0" fill="#eee" fill-rule="evenodd" stroke="#9e6e6e" stroke-width=".3"/>
  <path d="M583.6 220.992l-181.24-57.195-69.148 19.753-47.371 64.078-53.921 189.907-16.075 56.665-59.62 185.405 8.95 26.114" fill="none" stroke="#bababa" stroke-width="5.5" stroke-linecap="round" stroke-linejoin="round"/>
  <path d="M407.193 279.879l-230.375-63.125" fill="none" stroke="#bababa" stroke-width="11" stroke-linecap="round" stroke-linejoin="round"/>
  <path d="M407.193 279.879l-230.375-63.125" fill="none" stroke="#fff" stroke-width="9.4" stroke-linecap="round" stroke-linejoin="round"/>
  <path d="M920.65 647.566l10.719-31.988 54.09 19.172 8.335-23.406.934.37 1.703-8.05 55.621 17.899 14.715-45.383 12.414 4.183-1.531 4.555 58.43 20.016 10.886-31.563 54.09 18.695 17.606-52.586-16.243-5.402 5.356-17.21 17.86-52.325-58.598-19.383-10.461 31.352-54.344-18.48-10.633 31.507-54.344-18.164-6.21 18.324-16.926-5.668 2.976-9.054-54.43-18.22 10.633-31.562-54.433-18.058 10.633-31.563-54.688-18.219 4.422-13.183-16.84-5.879 6.125-18.059-39.973-13.453 6.04-17.898-.426-.266 11.308-33.574-107.332-35.852-33.508-11.175-41.335 36.222 9.867 39.72 21.86 7.202-6.552 19.86-95.765-31.88-.254.317-33.34 101.836-4.934 15.41 18.625 5.985 1.871-5.614 26.875 9.059 26.028 8.844 6.039 26.582-30.11 26.691-25.683 22.773-45.078-15.73-24.75 22.402 4.847 22.72-13.011 10.75 2.722 14.667 116.348 39.086 21.18-18.75-4.766-25.258 17.012-15.043 24.324 8.106 41.164-36.383 36.23 12.02 142.204 47.187-3.743 11.016-2.976 8.789-9.016-3.02-18.203 54.176zm0 0" fill="#a89b90" fill-rule="evenodd" stroke="#43382f" stroke-width=".75"/>
  <path d="M559.107 381.293l33.34-101.836-165.594-55.394-17.86 54.015-16.074 48.563 51.54 17zM155.99 276.035l18.202-58.309 17.946-57.351-115.5-36.067-36.063 115.715zm233.781 233.153l25.516-77.477-51.371-17.106-45.333-14.933-25.171 77.316zm0 0" fill="#a89b90" fill-rule="evenodd" stroke="#43382f" stroke-width=".75"/>
  <path d="M415.287 431.711l14.629-44.168-51.458-17-14.542 44.062zm14.629-44.168l14.542-43.902-51.539-17-14.46 43.902zm0 0" fill="#a89b90" fill-rule="evenodd" stroke="#43382f" stroke-width=".75"/>
  <path d="M916.994 254.09l326.672 103.691 54.007-171.847-328.117-107.98-52.562 176.136" fill="none" stroke="#424242" stroke-width=".4"/>
  <path d="M734.818 559.219l2.969.469 2.675 1.363 2.125 2.125 1.364 2.676.468 2.964-.468 2.97-1.364 2.675-2.125 2.121-2.675 1.367-2.97.469-2.964-.469-2.676-1.367-2.125-2.121-1.363-2.676-.469-2.969.469-2.964 1.363-2.676 2.125-2.125 2.676-1.363zm0 0" fill="#bababa"/>
  <path d="M156.224 679.605l-44.312-132.87 33.425-91.618 86.582-17.582" fill="none" stroke="#bababa" stroke-width="5.5" stroke-linecap="round" stroke-linejoin="round"/>
  <path d="M734.818 568.816l-75.691 17.742-44.653 39.243-83.729 79.918" fill="none" stroke="#bababa" stroke-width="11" stroke-linecap="round" stroke-linejoin="round"/>
  <path d="M401.935 555.629l154.535-124.45 11.82-9.48 33.254-15.566" fill="none" stroke="#bababa" stroke-width="1.6" stroke-linecap="round" stroke-linejoin="round" stroke-dasharray="1,4,2,3"/>
  <path d="M583.6 220.992l47.714-62.543L733.287 188l136.504 43.637 56.984 72.867 200.547 66.144 34.36-19.539 75.01 22.875 43.376 139.07 12.16 39.028 13.559 4.76" fill="none" stroke="#fa7f70" stroke-width="1.6" stroke-linecap="round" stroke-linejoin="round" stroke-dasharray="1,4,2,3"/>
  <path d="M1305.434 599.522l-27.749 9.966-380.082 58.094-105.46-42.95-57.325-55.816" fill="none" stroke="#fa7f70" stroke-width="1.6" stroke-linecap="round" stroke-linejoin="round" stroke-dasharray="1,4,2,3"/>
  <path d="M614.474 625.8l-212.539-70.17-186.09-61.43" fill="none" stroke="#fa7f70" stroke-width="1.6" stroke-linecap="round" stroke-linejoin="round" stroke-dasharray="1,4,2,3"/>
  <path d="M1280.068 513.055l-72.293 3.812" fill="none" stroke="#fa7f70" stroke-width="1.6" stroke-linecap="round" stroke-linejoin="round" stroke-dasharray="1,4,2,3"/>
  <path d="M733.287 188l4.847 31.191" fill="none" stroke="#fa7f70" stroke-width="1.6" stroke-linecap="round" stroke-linejoin="round" stroke-dasharray="1,4,2,3"/>
  <path d="M734.818 568.816l19.223-59.207" fill="none" stroke="#fa7f70" stroke-width="1.6" stroke-linecap="round" stroke-linejoin="round" stroke-dasharray="1,4,2,3"/>
  <path d="M603.501 468.25l-47.03-37.07" fill="none" stroke="#fa7f70" stroke-width="1.6" stroke-linecap="round" stroke-linejoin="round" stroke-dasharray="1,4,2,3"/>
  <path d="M1292.228 552.082l-14.543 57.406" fill="none" stroke="#fa7f70" stroke-width="1.6" stroke-linecap="round" stroke-linejoin="round" stroke-dasharray="1,4,2,3"/>
  <path d="M583.6 220.992l-181.24-57.195-69.148 19.753-47.371 64.078-53.921 189.907-16.075 56.665-59.62 185.405 8.95 26.114" fill="none" stroke="#fff" stroke-width="3.9" stroke-linecap="round" stroke-linejoin="round"/>
  <path d="M734.818 568.816l-75.691 17.742-44.653 39.243-83.729 79.918" fill="none" stroke="#fff" stroke-width="9.4" stroke-linecap="round" stroke-linejoin="round"/>
  <path d="M156.224 679.605l-44.312-132.87 33.425-91.618 86.582-17.582" fill="none" stroke="#fff" stroke-width="3.9" stroke-linecap="round" stroke-linejoin="round"/>
  <path d="M734.818 560.078l2.86.477 2.546 1.379 1.961 2.129 1.164 2.656.238 2.886-.71 2.81-1.583 2.421-2.289 1.781-2.738.942h-2.898l-2.739-.942-2.285-1.781-1.586-2.422-.71-2.809.238-2.886 1.164-2.656 1.965-2.13 2.546-1.378zm0 0" fill="#fff"/>
  <path d="M734.478 688.695l1.063.442.437 1.058-.437 1.063-1.063.437-1.059-.437-.441-1.063.441-1.058zm-68.207-52.585l1.059.437.441 1.062-.441 1.063-1.059.437-1.063-.437-.437-1.063.437-1.062zm-85.223 66.78l1.063.438.437 1.063-.437 1.058-1.063.442-1.058-.442-.442-1.058.442-1.063zm-68.211-4.238l1.063.438.437 1.062-.437 1.063-1.063.437-1.058-.437-.442-1.063.442-1.062zm103.676-29.867l1.063.438.437 1.062-.437 1.059-1.063.441-1.058-.441-.442-1.059.442-1.062zm-66.762-7.097l1.059.44.441 1.06-.441 1.062-1.059.438-1.062-.438-.438-1.062.438-1.06zM427.619 634.73l1.062.442.438 1.058-.438 1.063-1.062.437-1.059-.437-.441-1.063.441-1.058zm-93.727-59.68l1.063.438.437 1.063-.437 1.058-1.063.442-1.059-.442-.44-1.058.44-1.063zM271.38 691.504l1.063.437.437 1.063-.437 1.059-1.063.44-1.058-.44-.442-1.06.442-1.062zm-5.695-59.633l1.059.442.441 1.058-.441 1.063-1.059.437-1.062-.437-.438-1.063.438-1.058zm994.309-443.199l1.062.437.438 1.063-.438 1.058-1.062.442-1.059-.442-.441-1.058.441-1.063zm-46.86-11.336l1.059.441.441 1.059-.441 1.062-1.059.438-1.062-.438-.438-1.062.438-1.059zm-73.906-22.719l1.059.442.441 1.058-.441 1.063-1.059.437-1.062-.437-.438-1.063.438-1.058zm-223 25.578l1.063.442.437 1.058-.437 1.063-1.063.437-1.059-.437-.441-1.063.441-1.058zM903.47 217.11l1.063.437.437 1.062-.437 1.059-1.063.441-1.058-.441-.442-1.059.442-1.062zm-32.656-55.395l1.059.437.441 1.063-.441 1.058-1.059.442-1.063-.442-.437-1.058.437-1.063zm-31.301-12.817l1.063.442.437 1.058-.437 1.063-1.063.437-1.058-.437-.442-1.063.442-1.058zm-36.91-12.761l1.063.437.437 1.063-.437 1.058-1.063.442-1.059-.442-.441-1.058.441-1.063zm244.347-8.527l1.06.44.44 1.06-.44 1.062-1.06.437-1.062-.437-.437-1.063.437-1.058zm-56.812-18.481l1.059.437.441 1.063-.441 1.059-1.059.44-1.062-.44-.438-1.06.438-1.062zM849.466 50.926l1.059.441.441 1.059-.441 1.062-1.059.438-1.062-.438-.438-1.062.438-1.059zm-86.582 71.015l1.063.442.437 1.058-.437 1.063-1.063.437-1.058-.437-.442-1.063.442-1.058zM704.626 6.867l1.063.438.437 1.062-.437 1.059-1.063.441-1.062-.441-.438-1.059.438-1.062zM174.763 354.902l1.063.442.437 1.058-.437 1.063-1.063.437-1.058-.437-.442-1.063.442-1.058zm9.953-48.297l1.059.442.441 1.058-.441 1.063-1.059.437-1.062-.437-.438-1.063.438-1.058zm56.813-143.46l1.062.437.438 1.063-.438 1.058-1.062.442-1.059-.442-.441-1.058.441-1.063zm308.222-34.105l1.059.44.441 1.06-.441 1.062-1.059.437-1.062-.437-.438-1.063.438-1.059zm-55.367-18.481l1.059.437.441 1.063-.441 1.058-1.059.442-1.062-.442-.438-1.058.438-1.063zM352.35 94.934l1.062.441.437 1.059-.437 1.062-1.063.438-1.058-.438-.442-1.062.442-1.059zm0 0" style="stroke:#007f00;stroke-width:12;stroke-linejoin:round;stroke-dasharray:none;stroke-opacity:.3;fill:#b07d35;fill-opacity:1"/>
  <path d="M61.788 205.956h12.35v-4.294H57.114v26.296h4.674v-9.994h10.83v-4.294h-10.83zm24.614 22.382c5.776 0 9.576-3.876 9.576-9.614 0-5.7-3.724-9.462-9.5-9.462-5.852 0-9.576 3.724-9.576 9.538 0 5.7 3.724 9.538 9.5 9.538zm0-15.428c3.154 0 4.902 2.622 4.902 5.89 0 3.344-1.634 5.89-4.902 5.89-3.116 0-4.826-2.66-4.826-5.89 0-3.154 1.71-5.89 4.826-5.89zm13.533-3.23v18.278h4.56v-13.3c1.064-.912 2.204-1.406 3.42-1.406 1.178 0 2.736.418 3.762 1.102l.95-4.37c-1.064-.494-2.204-.722-3.382-.722-1.938 0-3.762.798-5.472 2.356l-.57-1.938zm22.011 18.658c2.622 0 3.876-.646 5.89-1.71l.722 1.33h3.192V209.68h-4.674v13.604c-1.216.722-2.47 1.102-3.8 1.102-2.432 0-3.382-1.596-3.382-3.8V209.68h-4.674v10.26c0 5.054 1.368 8.398 6.726 8.398zm24.533-19.076c-2.394 0-4.332 1.064-5.928 1.596l-.684-1.178h-3.268v18.278h4.674v-13.756c1.406-.608 2.394-1.026 3.952-1.026 2.128 0 2.964 1.634 2.964 3.686v11.096h4.674v-10.336c0-1.102-.114-2.242-.342-3.306 1.52-.684 2.546-1.14 4.294-1.14 2.128 0 2.85 1.634 2.85 3.686v11.096h4.674v-10.526c0-4.902-1.178-8.17-6.308-8.17-1.976 0-4.256.646-6.764 1.9-1.102-1.254-2.698-1.9-4.788-1.9zM91.078 176.966v-17.37h-3.6l-6.15 2.73 1.17 2.94 4.89-2.16v13.86h-5.55v3.39h14.25v-3.39zm23.39-17.79c-3.42 0-5.85 2.1-5.85 5.16 0 2.07 1.26 3.42 2.52 4.68-1.44 1.11-4.11 2.52-4.11 6 0 2.97 2.46 5.64 6.03 5.64 3.51 0 5.34-1.41 6.81-2.79l2.4 2.49h4.77l-4.62-4.86 4.17-4.05-2.28-2.31-4.17 3.93-3.75-3.93c1.74-1.35 3.96-2.28 3.96-4.8 0-2.49-1.98-5.16-5.88-5.16zm2.16 5.16c0 .9-.84 1.29-2.52 2.55-.96-.99-1.65-1.74-1.65-2.55 0-.9.66-1.59 2.01-1.59 1.17 0 2.16.66 2.16 1.59zm.87 11.19c-1.05.96-2.79 1.8-4.44 1.8-1.62 0-2.31-1.02-2.31-2.31 0-1.53 1.26-2.34 2.79-3.57zm19.933-14.22l1.56 2.97c1.41-.9 2.76-1.71 5.01-1.71 2.31 0 3.69.99 3.69 3 0 2.19-2.31 5.13-9.6 12.48v2.31h13.5v-3.21h-8.07c6.36-6.81 7.86-8.91 7.86-11.73 0-3.78-3.06-6.24-6.99-6.24-3.27 0-4.92.93-6.96 2.13z" fill="#fff"/>
  <path d="M427.105 273.846v-9.15h-2.49v9.75c0 3.06 1.71 5.01 4.77 5.01 1.56 0 3.24-.51 5.1-1.47l.57 1.17h1.71v-14.46h-2.49v11.58c-1.47.69-2.79 1.05-3.99 1.05-2.4 0-3.18-1.05-3.18-3.48zm16.089-8.22l-.63-.93h-1.77v21.9h2.49v-8.43c1.2.84 2.25 1.29 4.2 1.29 4.17 0 6.39-3.66 6.39-7.47 0-4.11-1.89-7.68-6.03-7.68-1.26 0-3.06.45-4.65 1.32zm.09 1.8c1.41-.66 2.73-1.02 3.96-1.02 3.24 0 4.05 2.82 4.05 5.43 0 3.09-1.2 5.64-4.44 5.64-1.65 0-2.49-.39-3.57-1.14zm14.27 9.03l-.72 1.86c.78.51 2.76 1.14 4.98 1.14 3.57 0 5.76-1.41 5.76-4.17 0-4.8-8.16-3.72-8.16-6.75 0-1.53 1.56-2.22 3.69-2.22 1.56 0 2.79.6 3.33.96l.72-1.86c-.72-.39-2.13-1.08-4.41-1.08-2.91 0-5.82 1.08-5.82 4.05 0 5.49 8.16 3.72 8.16 6.99 0 1.56-1.8 2.1-3.66 2.1-1.68 0-3.3-.75-3.87-1.02zm18.089 3c1.8 0 2.79-.27 3.66-.66l-.51-1.8c-.51.18-1.23.39-2.19.39-1.68 0-1.98-1.11-1.98-2.25v-8.46h4.14v-1.98h-4.14v-4.05h-2.49v4.05h-2.43v1.98h2.43v9.33c0 1.95.9 3.45 3.51 3.45zm11.17-13.14c2.49 0 3.36.81 3.36 4.32-4.68 0-9.09.51-9.09 4.77 0 2.43 2.19 4.05 4.68 4.05 1.5 0 2.97-.54 4.41-1.62l.6 1.32h1.86v-9.48c0-3.69-1.65-5.34-5.49-5.34-2.1 0-3.81.51-5.01 1.08l.72 1.86c.78-.39 2.34-.96 3.96-.96zm3.36 9.63c-1.08.87-2.22 1.53-4.05 1.53-1.44 0-2.64-.9-2.64-2.34 0-2.46 3.48-2.52 6.69-2.52zm7.544-13.59c.9 0 1.62-.72 1.62-1.62 0-.9-.72-1.62-1.62-1.62-.9 0-1.62.72-1.62 1.62 0 .9.72 1.62 1.62 1.62zm-1.2 2.34v14.46h2.4v-14.46zm14.54 1.98l.51-2.25c-.48-.09-.75-.12-1.59-.12-1.77 0-3.09.69-4.56 2.22l-.54-1.83h-1.71v14.46h2.49v-10.71c.66-.84 2.25-2.04 3.72-2.04.69 0 1.23.12 1.68.27zm3.039 9.78l-.72 1.86c.78.51 2.76 1.14 4.98 1.14 3.57 0 5.76-1.41 5.76-4.17 0-4.8-8.16-3.72-8.16-6.75 0-1.53 1.56-2.22 3.69-2.22 1.56 0 2.79.6 3.33.96l.72-1.86c-.72-.39-2.13-1.08-4.41-1.08-2.91 0-5.82 1.08-5.82 4.05 0 5.49 8.16 3.72 8.16 6.99 0 1.56-1.8 2.1-3.66 2.1-1.68 0-3.3-.75-3.87-1.02zm15.15-8.52c1.05 0 1.8-.78 1.8-1.8s-.75-1.8-1.8-1.8-1.8.78-1.8 1.8.75 1.8 1.8 1.8zm0 11.52c1.05 0 1.8-.78 1.8-1.8s-.75-1.8-1.8-1.8-1.8.78-1.8 1.8.75 1.8 1.8 1.8z" fill="#fff"/>
  <path d="M448.523 294.576v11.61H434.16v-11.61h-5.29v29.756h5.29v-13.287h14.362v13.287h5.289v-29.756zm36.384 24.897v-24.897h-5.16l-8.815 3.913 1.677 4.214 7.009-3.096v19.866h-7.955v4.86h20.425v-4.86zm10.544-11.266v4.601h12.9v-4.6zm25.86 11.696c-1.634 0-3.784-.387-6.493-1.247l-.817-.258-1.548 4.687.817.258c2.279.774 5.289 1.42 8.127 1.42 5.16 0 11.653-2.882 11.653-9.977 0-6.02-4.429-9.546-10.535-9.546-1.376 0-2.494.086-3.698.301l.43-6.063h12.341v-4.902h-17.2l-.86 14.577 1.204 2.193.688-.215c2.322-.73 4.214-1.032 5.547-1.032 4.644 0 6.794.774 6.794 4.73 0 3.784-3.569 5.074-6.45 5.074zM716.226 300.87c2.752 0 4.257-.644 6.02-1.848l1.032 1.419h2.537v-30.874h-3.569v11.438c-2.15-1.204-4.515-1.85-6.106-1.85-6.235 0-9.073 5.118-9.073 11.009 0 5.46 3.182 10.707 9.16 10.707zm6.02-4.471c-1.59 1.075-2.795 1.634-5.117 1.634-4.644 0-6.364-3.655-6.364-8.084 0-3.741 1.247-7.783 6.235-7.783 1.591 0 3.354.516 5.246 1.462zm11.425-20.039a2.312 2.312 0 0 0 2.322-2.321 2.312 2.312 0 0 0-2.322-2.322 2.312 2.312 0 0 0-2.322 2.322 2.312 2.312 0 0 0 2.322 2.322zm-1.72 3.355v20.726h3.44v-20.726zm23.377 7.395v13.33h3.57v-14.19c0-4.428-2.366-7.094-6.795-7.094-2.408 0-4.902.688-7.396 2.064l-.774-1.505h-2.45v20.726h3.568v-16.813c2.064-.99 4-1.462 5.762-1.462 3.397 0 4.515 1.462 4.515 4.945zm11.013-10.75a2.312 2.312 0 0 0 2.322-2.321 2.312 2.312 0 0 0-2.322-2.322 2.312 2.312 0 0 0-2.322 2.322 2.312 2.312 0 0 0 2.322 2.322zm-1.72 3.355v20.726h3.44v-20.726zm23.377 7.395v13.33h3.57v-14.19c0-4.428-2.366-7.094-6.795-7.094-2.408 0-4.902.688-7.396 2.064l-.774-1.505h-2.45v20.726h3.568v-16.813c2.064-.99 4-1.462 5.762-1.462 3.397 0 4.515 1.462 4.515 4.945zm17.42 13.76c2.709 0 4.257-.644 5.977-1.805v3.526c0 4.085-1.204 6.235-5.547 6.235-2.795 0-5.72-1.677-6.15-1.935l-1.031 2.666a15.188 15.188 0 0 0 7.654 2.064c5.547 0 8.643-3.096 8.643-8.772v-23.134h-2.537l-.946 1.333c-2.28-1.247-4.86-1.892-6.58-1.892-5.933 0-8.642 5.117-8.642 11.008 0 5.46 3.182 10.707 9.159 10.707zm5.977-4.428c-1.591 1.032-2.795 1.59-5.074 1.59-4.644 0-6.364-3.654-6.364-8.083 0-3.741 1.16-7.783 5.805-7.783 1.72 0 3.612.516 5.633 1.419zm-75.875 43.387v-16.856c1.978-.946 3.87-1.42 5.59-1.42 3.397 0 4.515 1.463 4.515 4.946v13.33h3.569v-14.19c0-4.43-2.365-7.095-6.794-7.095-2.279 0-4.601.602-6.88 1.806v-11.395h-3.569v30.874zm26.194-18.404c3.569 0 4.816 1.16 4.816 6.192-6.708 0-13.03.73-13.03 6.837 0 3.483 3.14 5.805 6.709 5.805 2.15 0 4.257-.774 6.32-2.322l.86 1.892h2.667V326.24c0-5.29-2.365-7.654-7.87-7.654-3.01 0-5.46.73-7.18 1.548l1.032 2.666c1.118-.56 3.354-1.376 5.676-1.376zm4.816 13.803c-1.548 1.247-3.182 2.193-5.805 2.193-2.064 0-3.784-1.29-3.784-3.354 0-3.526 4.988-3.612 9.589-3.612zm15.027 2.064c-2.28 0-2.365-1.505-2.365-3.225v-25.112h-3.57v26.359c0 2.924 2.15 4.945 5.462 4.945 1.075 0 1.849-.215 2.279-.387l-.688-2.71a4.205 4.205 0 0 1-1.118.13zm10.833 0c-2.278 0-2.364-1.505-2.364-3.225v-25.112h-3.57v26.359c0 2.924 2.15 4.945 5.462 4.945 1.075 0 1.849-.215 2.279-.387l-.688-2.71a4.205 4.205 0 0 1-1.118.13z" fill="#fff"/>
  <path d="M672.575 424.8c0-3.04 2.12-5.76 5.28-5.76 3.52 0 4.72 2.4 4.72 5.76zm6.44 9.12c-4.72 0-6.52-2.96-6.52-6.48h13.4v-2.64c0-5.2-3.04-8.4-8-8.4-5.72 0-8.76 4.36-8.76 10.08 0 6.44 3.36 10.08 9.48 10.08 3.32 0 6.16-.88 6.96-1.52l-.96-2.48c-.48.4-3 1.36-5.6 1.36zm24.545-10.16v12.4h3.32v-13.2c0-4.12-2.2-6.6-6.32-6.6-2.24 0-4.56.64-6.88 1.92l-.72-1.4h-2.28v19.28H694v-15.64c1.92-.92 3.72-1.36 5.36-1.36 3.16 0 4.2 1.36 4.2 4.6zm14.485 12.8c2.4 0 3.72-.36 4.88-.88l-.68-2.4c-.68.24-1.64.52-2.92.52-2.24 0-2.64-1.48-2.64-3v-11.28h5.52v-2.64h-5.52v-5.4h-3.32v5.4h-3.24v2.64h3.24v12.44c0 2.6 1.2 4.6 4.68 4.6zm19.093-17.04l.68-3c-.64-.12-1-.16-2.12-.16-2.36 0-4.12.92-6.08 2.96l-.72-2.44h-2.28v19.28h3.32v-14.28c.88-1.12 3-2.72 4.96-2.72.92 0 1.64.16 2.24.36zm10.252-.48c3.32 0 4.48 1.08 4.48 5.76-6.24 0-12.12.68-12.12 6.36 0 3.24 2.92 5.4 6.24 5.4 2 0 3.96-.72 5.88-2.16l.8 1.76h2.48v-12.64c0-4.92-2.2-7.12-7.32-7.12-2.8 0-5.08.68-6.68 1.44l.96 2.48c1.04-.52 3.12-1.28 5.28-1.28zm4.48 12.84c-1.44 1.16-2.96 2.04-5.4 2.04-1.92 0-3.52-1.2-3.52-3.12 0-3.28 4.64-3.36 8.92-3.36zm21.3-8.12v12.4h3.32v-13.2c0-4.12-2.2-6.6-6.32-6.6-2.24 0-4.56.64-6.88 1.92l-.72-1.4h-2.28v19.28h3.32v-15.64c1.92-.92 3.72-1.36 5.36-1.36 3.16 0 4.2 1.36 4.2 4.6zm16.764 12.8c3.08 0 5.68-.96 6.52-1.52l-.96-2.48c-.56.32-2.64 1.36-5.16 1.36-4.04 0-6.16-2.4-6.16-7.44 0-4.8 2.2-7.44 6.6-7.44 1.64 0 3.12.48 4.36 1.04l.96-2.48c-1.88-.8-3.88-1.2-5.76-1.2-6.16 0-9.48 4.04-9.48 10.08 0 6.2 3.24 10.08 9.08 10.08zm13.813-11.76c0-3.04 2.12-5.76 5.28-5.76 3.52 0 4.72 2.4 4.72 5.76zm6.44 9.12c-4.72 0-6.52-2.96-6.52-6.48h13.4v-2.64c0-5.2-3.04-8.4-8-8.4-5.72 0-8.76 4.36-8.76 10.08 0 6.44 3.36 10.08 9.48 10.08 3.32 0 6.16-.88 6.96-1.52l-.96-2.48c-.48.4-3 1.36-5.6 1.36zM756.308 477.77c1.89 0 2.97-.45 4.17-1.26v2.46c0 2.85-.84 4.35-3.87 4.35-1.95 0-3.99-1.17-4.29-1.35l-.72 1.86c.69.39 2.58 1.44 5.34 1.44 3.87 0 6.03-2.16 6.03-6.12v-16.14h-1.77l-.66.93c-1.59-.87-3.39-1.32-4.59-1.32-4.14 0-6.03 3.57-6.03 7.68 0 3.81 2.22 7.47 6.39 7.47zm4.17-3.09c-1.11.72-1.95 1.11-3.54 1.11-3.24 0-4.44-2.55-4.44-5.64 0-2.61.81-5.43 4.05-5.43 1.2 0 2.52.36 3.93.99zm10.941 1.02c-1.59 0-1.65-1.05-1.65-2.25v-17.52h-2.49v18.39c0 2.04 1.5 3.45 3.81 3.45.75 0 1.29-.15 1.59-.27l-.48-1.89c-.24.06-.45.09-.78.09zm8.129-11.07c2.49 0 3.36.81 3.36 4.32-4.68 0-9.09.51-9.09 4.77 0 2.43 2.19 4.05 4.68 4.05 1.5 0 2.97-.54 4.41-1.62l.6 1.32h1.86v-9.48c0-3.69-1.65-5.34-5.49-5.34-2.1 0-3.81.51-5.01 1.08l.72 1.86c.78-.39 2.34-.96 3.96-.96zm3.36 9.63c-1.08.87-2.22 1.53-4.05 1.53-1.44 0-2.64-.9-2.64-2.34 0-2.46 3.48-2.52 6.69-2.52zm6.404.51l-.72 1.86c.78.51 2.76 1.14 4.98 1.14 3.57 0 5.76-1.41 5.76-4.17 0-4.8-8.16-3.72-8.16-6.75 0-1.53 1.56-2.22 3.69-2.22 1.56 0 2.79.6 3.33.96l.72-1.86c-.72-.39-2.13-1.08-4.41-1.08-2.91 0-5.82 1.08-5.82 4.05 0 5.49 8.16 3.72 8.16 6.99 0 1.56-1.8 2.1-3.66 2.1-1.68 0-3.3-.75-3.87-1.02zm13.199-8.07v2.19h8.7v-2.19zm-62.331 12.833v21.54h2.49v-4.59l2.52-2.67 4.62 7.26h2.64l-5.7-8.97 5.13-5.49h-3.03l-6.18 6.54v-13.62zm19.416 8.7c2.49 0 3.36.81 3.36 4.32-4.68 0-9.09.51-9.09 4.77 0 2.43 2.19 4.05 4.68 4.05 1.5 0 2.97-.54 4.41-1.62l.6 1.32h1.86v-9.48c0-3.69-1.65-5.34-5.49-5.34-2.1 0-3.81.51-5.01 1.08l.72 1.86c.78-.39 2.34-.96 3.96-.96zm3.36 9.63c-1.08.87-2.22 1.53-4.05 1.53-1.44 0-2.64-.9-2.64-2.34 0-2.46 3.48-2.52 6.69-2.52zm6.404.51l-.72 1.86c.78.51 2.76 1.14 4.98 1.14 3.57 0 5.76-1.41 5.76-4.17 0-4.8-8.16-3.72-8.16-6.75 0-1.53 1.56-2.22 3.69-2.22 1.56 0 2.79.6 3.33.96l.72-1.86c-.72-.39-2.13-1.08-4.41-1.08-2.91 0-5.82 1.08-5.82 4.05 0 5.49 8.16 3.72 8.16 6.99 0 1.56-1.8 2.1-3.66 2.1-1.68 0-3.3-.75-3.87-1.02zm18.09 3c1.8 0 2.79-.27 3.66-.66l-.51-1.8c-.51.18-1.23.39-2.19.39-1.68 0-1.98-1.11-1.98-2.25v-8.46h4.14v-1.98h-4.14v-4.05h-2.49v4.05h-2.43v1.98h2.43v9.33c0 1.95.9 3.45 3.51 3.45zm8.32-8.82c0-2.28 1.59-4.32 3.96-4.32 2.64 0 3.54 1.8 3.54 4.32zm4.83 6.84c-3.54 0-4.89-2.22-4.89-4.86h10.05v-1.98c0-3.9-2.28-6.3-6-6.3-4.29 0-6.57 3.27-6.57 7.56 0 4.83 2.52 7.56 7.11 7.56 2.49 0 4.62-.66 5.22-1.14l-.72-1.86c-.36.3-2.25 1.02-4.2 1.02zm18.409-7.62v9.3h2.49v-9.9c0-3.09-1.65-4.95-4.74-4.95-1.68 0-3.42.48-5.16 1.44l-.54-1.05h-1.71v14.46h2.49v-11.73c1.44-.69 2.79-1.02 4.02-1.02 2.37 0 3.15 1.02 3.15 3.45zM842.968 436.623c.7 0 1.275.175 1.575.3l.575-1.425c-.575-.3-1.325-.525-2.425-.525-2.575 0-4.025 1.275-4.025 4.15v2.05h-1.75v1.575h1.75v10.475h2.075v-10.475h3.725v-1.575h-3.725v-1.975c0-1.575.65-2.575 2.225-2.575zm4.67 2.6c.75 0 1.35-.6 1.35-1.35 0-.75-.6-1.35-1.35-1.35-.75 0-1.35.6-1.35 1.35 0 .75.6 1.35 1.35 1.35zm-1 1.95v12.05h2v-12.05zm12.116 1.65l.425-1.875c-.4-.075-.625-.1-1.325-.1-1.475 0-2.575.575-3.8 1.85l-.45-1.525h-1.425v12.05h2.075v-8.925c.55-.7 1.875-1.7 3.1-1.7.575 0 1.025.1 1.4.225zm4.034 3.3c0-1.9 1.325-3.6 3.3-3.6 2.2 0 2.95 1.5 2.95 3.6zm4.025 5.7c-2.95 0-4.075-1.85-4.075-4.05h8.375v-1.65c0-3.25-1.9-5.25-5-5.25-3.575 0-5.475 2.725-5.475 6.3 0 4.025 2.1 6.3 5.925 6.3 2.075 0 3.85-.55 4.35-.95l-.6-1.55c-.3.25-1.875.85-3.5.85zm6.89-7.575v1.825h7.25v-1.825zM831.06 456.7l-.525-.775h-1.475v18.25h2.075v-7.025c1 .7 1.875 1.075 3.5 1.075 3.475 0 5.325-3.05 5.325-6.225 0-3.425-1.575-6.4-5.025-6.4-1.05 0-2.55.375-3.875 1.1zm.075 1.5c1.175-.55 2.275-.85 3.3-.85 2.7 0 3.375 2.35 3.375 4.525 0 2.575-1 4.7-3.7 4.7-1.375 0-2.075-.325-2.975-.95zm15.291 8.3c-1.325 0-1.375-.875-1.375-1.875v-14.6h-2.075v15.325c0 1.7 1.25 2.875 3.175 2.875.625 0 1.075-.125 1.325-.225l-.4-1.575c-.2.05-.375.075-.65.075zm6.774-9.225c2.075 0 2.8.675 2.8 3.6-3.9 0-7.575.425-7.575 3.975 0 2.025 1.825 3.375 3.9 3.375 1.25 0 2.475-.45 3.675-1.35l.5 1.1h1.55v-7.9c0-3.075-1.375-4.45-4.575-4.45-1.75 0-3.175.425-4.175.9l.6 1.55c.65-.325 1.95-.8 3.3-.8zm2.8 8.025c-.9.725-1.85 1.275-3.375 1.275-1.2 0-2.2-.75-2.2-1.95 0-2.05 2.9-2.1 5.575-2.1zm10.361 2.925c1.925 0 3.55-.6 4.075-.95l-.6-1.55c-.35.2-1.65.85-3.225.85-2.525 0-3.85-1.5-3.85-4.65 0-3 1.375-4.65 4.125-4.65 1.025 0 1.95.3 2.725.65l.6-1.55a9.296 9.296 0 0 0-3.6-.75c-3.85 0-5.925 2.525-5.925 6.3 0 3.875 2.025 6.3 5.675 6.3zm8.634-7.35c0-1.9 1.325-3.6 3.3-3.6 2.2 0 2.95 1.5 2.95 3.6zm4.025 5.7c-2.95 0-4.075-1.85-4.075-4.05h8.375v-1.65c0-3.25-1.9-5.25-5-5.25-3.575 0-5.475 2.725-5.475 6.3 0 4.025 2.1 6.3 5.925 6.3 2.075 0 3.85-.55 4.35-.95l-.6-1.55c-.3.25-1.875.85-3.5.85zM874.529 533.77c-1.325 0-1.375-.876-1.375-1.876v-14.6h-2.075v15.325c0 1.7 1.25 2.875 3.175 2.875.625 0 1.075-.125 1.325-.225l-.4-1.575c-.2.05-.375.075-.65.075zm3.849-12.526c.75 0 1.35-.6 1.35-1.35 0-.75-.6-1.35-1.35-1.35-.75 0-1.35.6-1.35 1.35 0 .75.6 1.35 1.35 1.35zm-1 1.95v12.05h2v-12.05zm7.616.75v-6.65h-2.075v17.95h1.475l.575-.825c1.025.7 1.9 1.075 3.525 1.075 3.475 0 5.325-3.05 5.325-6.225 0-3.425-1.575-6.4-5.025-6.4-1.025 0-2.5.375-3.8 1.075zm0 1.525c1.175-.55 2.275-.85 3.3-.85 2.7 0 3.375 2.35 3.375 4.525 0 2.575-1 4.7-3.7 4.7-1.375 0-2.075-.325-2.975-.95zm18.367-.625l.425-1.875c-.4-.075-.625-.1-1.325-.1-1.475 0-2.575.575-3.8 1.85l-.45-1.525h-1.425v12.05h2.075v-8.925c.55-.7 1.875-1.7 3.1-1.7.575 0 1.025.1 1.4.225zm6.409-.3c2.075 0 2.8.675 2.8 3.6-3.9 0-7.575.425-7.575 3.975 0 2.025 1.825 3.375 3.9 3.375 1.25 0 2.475-.45 3.675-1.35l.5 1.1h1.55v-7.9c0-3.075-1.375-4.45-4.575-4.45-1.75 0-3.175.425-4.175.9l.6 1.55c.65-.325 1.95-.8 3.3-.8zm2.8 8.025c-.9.725-1.85 1.275-3.375 1.275-1.2 0-2.2-.75-2.2-1.95 0-2.05 2.9-2.1 5.575-2.1zm11.836-7.725l.425-1.875c-.4-.075-.625-.1-1.325-.1-1.475 0-2.575.575-3.8 1.85l-.45-1.525h-1.425v12.05h2.075v-8.925c.55-.7 1.875-1.7 3.1-1.7.575 0 1.025.1 1.4.225zm10.509-1.65l-3.7 10-3.7-10h-2.175l4.85 12.675-2.3 5.575h2.1l6.9-18.25zM600.235 475.611v17.95h2.075v-3.825l2.1-2.225 3.85 6.05h2.2l-4.75-7.475 4.275-4.575h-2.525l-5.15 5.45v-11.35zm13.256 3.95c.75 0 1.35-.6 1.35-1.35 0-.75-.6-1.35-1.35-1.35-.75 0-1.35.6-1.35 1.35 0 .75.6 1.35 1.35 1.35zm-1 1.95v12.05h2v-12.05zm13.591 4.3v7.75h2.075v-8.25c0-2.575-1.375-4.125-3.95-4.125-1.4 0-2.85.4-4.3 1.2l-.45-.875h-1.425v12.05h2.075v-9.775c1.2-.575 2.326-.85 3.35-.85 1.976 0 2.626.85 2.626 2.875zm10.128 8c1.6 0 2.475-.375 3.5-1.075l.6.825h1.475v-17.95h-2.075v6.65c-1.25-.7-2.625-1.075-3.55-1.075-3.625 0-5.275 2.975-5.275 6.4 0 3.175 1.85 6.225 5.325 6.225zm3.5-2.6c-.925.625-1.625.95-2.975.95-2.7 0-3.7-2.125-3.7-4.7 0-2.175.725-4.525 3.625-4.525.925 0 1.95.3 3.05.85zm7.192-4.75c0-1.9 1.325-3.6 3.3-3.6 2.2 0 2.95 1.5 2.95 3.6zm4.025 5.7c-2.95 0-4.075-1.85-4.075-4.05h8.375v-1.65c0-3.25-1.9-5.25-5-5.25-3.575 0-5.475 2.725-5.475 6.3 0 4.025 2.1 6.3 5.925 6.3 2.075 0 3.85-.55 4.35-.95l-.6-1.55c-.3.25-1.875.85-3.5.85zm13.866-9l.425-1.875c-.4-.075-.625-.1-1.325-.1-1.475 0-2.575.575-3.8 1.85l-.45-1.525h-1.425v12.05h2.075v-8.925c.55-.7 1.875-1.7 3.1-1.7.575 0 1.025.1 1.4.225zm2.058 1.425v1.825h7.25v-1.825zm-116.578 23.977c1.575 0 2.475-.375 3.475-1.05v2.05c0 2.375-.7 3.625-3.225 3.625-1.625 0-3.325-.975-3.575-1.125l-.6 1.55a8.83 8.83 0 0 0 4.45 1.2c3.225 0 5.025-1.8 5.025-5.1v-13.45h-1.475l-.55.775c-1.325-.725-2.825-1.1-3.825-1.1-3.45 0-5.025 2.975-5.025 6.4 0 3.175 1.85 6.225 5.325 6.225zm3.475-2.575c-.925.6-1.625.925-2.95.925-2.7 0-3.7-2.125-3.7-4.7 0-2.175.675-4.525 3.375-4.525 1 0 2.1.3 3.275.825zm9.592-8.375c2.075 0 2.8.675 2.8 3.6-3.9 0-7.575.425-7.575 3.975 0 2.025 1.825 3.375 3.9 3.375 1.25 0 2.475-.45 3.675-1.35l.5 1.1h1.55v-7.9c0-3.075-1.375-4.45-4.575-4.45-1.75 0-3.175.425-4.175.9l.6 1.55c.65-.325 1.95-.8 3.3-.8zm2.8 8.025c-.9.725-1.85 1.275-3.375 1.275-1.2 0-2.2-.75-2.2-1.95 0-2.05 2.9-2.1 5.575-2.1zm11.837-7.725l.425-1.875c-.4-.075-.625-.1-1.325-.1-1.475 0-2.575.575-3.8 1.85l-.45-1.525h-1.425v12.05h2.075v-8.925c.55-.7 1.875-1.7 3.1-1.7.575 0 1.025.1 1.4.225zm7.208 10.65c1.6 0 2.475-.375 3.5-1.075l.6.825h1.475v-17.95h-2.075v6.65c-1.25-.7-2.625-1.075-3.55-1.075-3.625 0-5.275 2.975-5.275 6.4 0 3.175 1.85 6.225 5.325 6.225zm3.5-2.6c-.925.625-1.625.95-2.975.95-2.7 0-3.7-2.125-3.7-4.7 0-2.175.725-4.525 3.625-4.525.925 0 1.95.3 3.05.85zm7.192-4.75c0-1.9 1.325-3.6 3.3-3.6 2.2 0 2.95 1.5 2.95 3.6zm4.025 5.7c-2.95 0-4.075-1.85-4.075-4.05h8.375v-1.65c0-3.25-1.9-5.25-5-5.25-3.575 0-5.475 2.725-5.475 6.3 0 4.025 2.1 6.3 5.925 6.3 2.075 0 3.85-.55 4.35-.95l-.6-1.55c-.3.25-1.875.85-3.5.85zm15.341-6.35v7.75h2.075v-8.25c0-2.575-1.375-4.125-3.95-4.125-1.4 0-2.85.4-4.3 1.2l-.45-.875h-1.425v12.05h2.075v-9.775c1.2-.575 2.325-.85 3.35-.85 1.975 0 2.625.85 2.625 2.875zM1030.542 528.953l.68-3c-.64-.12-1-.16-2.12-.16-2.36 0-4.12.92-6.08 2.96l-.72-2.44h-2.28v19.28h3.32v-14.28c.88-1.12 3-2.72 4.96-2.72.92 0 1.64.16 2.24.36zm12.373 17c5.96 0 9.48-4.16 9.48-10.12 0-6.08-3.28-10-9.32-10-6.04 0-9.52 4-9.52 10.08 0 6 3.36 10.04 9.36 10.04zm.16-17.48c3.92 0 6 3.48 6 7.44 0 4.04-2.04 7.4-6 7.4-4.08 0-6.2-3.28-6.2-7.4 0-4.04 2.12-7.44 6.2-7.44zm22.496 17.48c5.96 0 9.48-4.16 9.48-10.12 0-6.08-3.28-10-9.32-10-6.04 0-9.52 4-9.52 10.08 0 6 3.36 10.04 9.36 10.04zm.16-17.48c3.92 0 6 3.48 6 7.44 0 4.04-2.04 7.4-6 7.4-4.08 0-6.2-3.28-6.2-7.4 0-4.04 2.12-7.44 6.2-7.44zm17.377 1.48c1.64-.92 3.16-1.36 4.56-1.36 3.16 0 4.2 1.36 4.2 4.6v12.4h3.32v-13.2c0-.56-.08-1.16-.16-1.68 1.8-1.44 3.52-2.12 5.12-2.12 3.16 0 4.2 1.36 4.2 4.6v12.4h3.32v-13.2c0-4.12-2.2-6.6-6.32-6.6-2.32 0-4.64.92-7.04 2.76-1-1.76-2.84-2.76-5.44-2.76-1.96 0-4.04.64-6.08 1.92l-.72-1.4h-2.28v19.28h3.32zm30.002 12.04l-.96 2.48c1.04.68 3.68 1.52 6.64 1.52 4.76 0 7.68-1.88 7.68-5.56 0-6.4-10.88-4.96-10.88-9 0-2.04 2.08-2.96 4.92-2.96 2.08 0 3.72.8 4.44 1.28l.96-2.48c-.96-.52-2.84-1.44-5.88-1.44-3.88 0-7.76 1.44-7.76 5.4 0 7.32 10.88 4.96 10.88 9.32 0 2.08-2.4 2.8-4.88 2.8-2.24 0-4.4-1-5.16-1.36z" fill="#fff"/>
  <path d="M124.5 251.564l-2.5-8.9h-3.25l4.35 12.025h2.925l2.775-8.425 2.7 8.425h2.875l4.375-12.025h-3.225l-2.5 8.9-2.575-8.9h-3.35zm18.437-2.9c0-2.325 1.375-3.875 4-3.875 1.575 0 2.45.375 3 .675l.6-2.3c-.6-.375-1.7-.775-3.925-.775-4.125 0-6.75 2.425-6.75 6.275 0 3.75 2.725 6.275 6.85 6.275 1.9 0 3.45-.55 3.875-.75l-.6-2.3c-.525.25-1.475.65-3.05.65-2.475 0-4-1.6-4-3.875zM554.603 289.62l-2.5-8.9h-3.25l4.35 12.024h2.925l2.775-8.425 2.7 8.425h2.875l4.375-12.025h-3.225l-2.5 8.9-2.575-8.9h-3.35zm18.437-2.9c0-2.326 1.376-3.876 4-3.876 1.576 0 2.45.375 3 .675l.6-2.3c-.6-.375-1.7-.775-3.924-.775-4.125 0-6.75 2.425-6.75 6.275 0 3.75 2.725 6.275 6.85 6.275 1.9 0 3.45-.55 3.875-.75l-.6-2.3c-.525.25-1.475.65-3.05.65-2.475 0-4-1.6-4-3.875zM892.853 481.338l-2.5-8.9h-3.25l4.35 12.025h2.925l2.775-8.425 2.7 8.425h2.875l4.375-12.025h-3.225l-2.5 8.9-2.575-8.9h-3.35zm18.437-2.9c0-2.325 1.376-3.875 4-3.875 1.576 0 2.45.375 3 .675l.6-2.3c-.6-.375-1.7-.775-3.924-.775-4.125 0-6.75 2.425-6.75 6.275 0 3.75 2.725 6.275 6.85 6.275 1.9 0 3.45-.55 3.875-.75l-.6-2.3c-.525.25-1.475.65-3.05.65-2.475 0-4-1.6-4-3.875z" fill="#ccc"/>
  <path d="M21.218 439.089c-.85.65-1.812.934-2.915.934-2.32 0-3.566-1.557-3.566-4.217 0-2.66.934-4.415 3.792-4.415 1.019 0 2.123.34 2.689.764zm0-9.622c-1.02-.623-2.18-.906-3.538-.906-4.584 0-6.424 2.915-6.424 7.047s2.406 7.16 6.48 7.16c1.36 0 2.718-.368 4.076-1.16l.707.877h2.18v-20.32h-3.481zm13.474 13.301c4.302 0 7.132-2.887 7.132-7.16 0-4.245-2.774-7.047-7.075-7.047-4.359 0-7.132 2.774-7.132 7.104 0 4.245 2.773 7.103 7.075 7.103zm0-11.49c2.349 0 3.65 1.953 3.65 4.387 0 2.49-1.216 4.386-3.65 4.386-2.32 0-3.594-1.98-3.594-4.386 0-2.35 1.273-4.387 3.594-4.387zm14.889 7.669l-2.83-10.074h-3.679l4.925 13.612h3.31l3.142-9.537 3.056 9.537h3.255l4.952-13.612h-3.65l-2.83 10.074-2.915-10.074h-3.792zm30.833-4.301c0-3.708-1.132-6.085-5.009-6.085-1.528 0-3.113.396-4.698 1.189l-.51-.877h-2.433v13.612h3.481v-10.33c1.387-.509 2.462-.764 3.254-.764 1.698 0 2.434 1.189 2.434 2.83v8.264h3.481zm7.336 5.405c-1.953 0-3.283-.396-4.188-.736l-.595 2.632c1.02.425 2.745.82 5.151.82 4.019 0 6.283-1.244 6.283-3.933 0-5.122-7.698-3.99-7.698-6.028 0-1.019 1.415-1.528 2.632-1.528 2.15 0 3.113.453 4.047.906l.792-2.66c-1.019-.482-2.236-.963-4.896-.963-1.84 0-6.056.538-6.056 4.104 0 5.122 7.698 3.849 7.698 5.971 0 1.132-1.613 1.415-3.17 1.415zm19.294 1.953l-.51-2.406c-.51.142-1.556.396-2.519.396-1.867 0-2.292-.933-2.292-1.98v-6.425h4.698v-2.716h-4.698v-4.274h-3.48v4.274h-2.265v2.716h2.264v6.51c0 2.405.595 4.669 4.924 4.669 1.302 0 2.915-.396 3.878-.764zm10.032-2.745c-.736.452-1.557.792-2.802.792s-2.264-.481-2.264-1.613c0-1.896 2.972-1.896 5.066-1.896zm0-5.123c-4.188 0-8.547.397-8.547 4.557 0 2.603 2.18 4.075 4.896 4.075 1.585 0 2.915-.396 3.962-1.217l.453.934h2.717v-8.405c0-3.934-2.01-5.519-6.254-5.519-1.783 0-4.047.425-4.727.878l.68 2.603c.877-.48 2.433-.905 3.509-.905 2.575 0 3.311.594 3.311 3zm8.738-6.905c1.104 0 2.094-.99 2.094-2.094 0-1.104-.99-2.094-2.094-2.094-1.104 0-2.094.99-2.094 2.094 0 1.104.99 2.094 2.094 2.094zm-1.698 1.642v13.612h3.396v-13.612zm7.157 0v13.612h3.396v-9.905c.793-.68 1.642-1.047 2.547-1.047.878 0 2.038.311 2.802.82l.707-3.254a5.927 5.927 0 0 0-2.518-.538c-1.444 0-2.802.595-4.075 1.755l-.425-1.443zm15.233 11.178c-1.953 0-3.283-.396-4.189-.736l-.594 2.632c1.019.425 2.745.82 5.15.82 4.02 0 6.283-1.244 6.283-3.933 0-5.122-7.697-3.99-7.697-6.028 0-1.019 1.415-1.528 2.632-1.528 2.15 0 3.113.453 4.046.906l.793-2.66c-1.019-.482-2.236-.963-4.896-.963-1.84 0-6.056.538-6.056 4.104 0 5.122 7.697 3.849 7.697 5.971 0 1.132-1.613 1.415-3.17 1.415zm11.539 2.717c1.16 0 2.18-1.019 2.18-2.18 0-1.16-1.02-2.178-2.18-2.178-1.16 0-2.179 1.018-2.179 2.179 0 1.16 1.019 2.179 2.18 2.179zm0-9.849c1.16 0 2.18-1.018 2.18-2.179 0-1.16-1.02-2.179-2.18-2.179-1.16 0-2.179 1.02-2.179 2.18 0 1.16 1.019 2.178 2.18 2.178zM27.072 470.865v3.028h8.49v-3.028zm21.701 10.613l.68-.878c1.358.793 2.716 1.16 4.103 1.16 4.075 0 6.48-3.027 6.48-7.16 0-4.13-1.669-7.046-5.857-7.046a8.789 8.789 0 0 0-4.104.99v-7.386h-3.48v20.32zm1.302-10.33c.68-.283 2.01-.764 3.255-.764 2.434 0 3.226 1.755 3.226 4.415s-1.245 4.217-3.566 4.217c-1.132 0-2.094-.283-2.915-.934zm19.163 10.612c4.301 0 7.131-2.886 7.131-7.16 0-4.244-2.773-7.046-7.075-7.046-4.358 0-7.131 2.774-7.131 7.104 0 4.244 2.773 7.103 7.075 7.103zm0-11.489c2.349 0 3.65 1.953 3.65 4.386 0 2.49-1.216 4.387-3.65 4.387-2.32 0-3.594-1.981-3.594-4.386 0-2.35 1.273-4.387 3.594-4.387zm14.889 7.669l-2.83-10.075h-3.679l4.924 13.613h3.312l3.14-9.537 3.057 9.537h3.255l4.952-13.613h-3.65l-2.83 10.075-2.915-10.075H87.07zm22.994 1.02c-1.104 0-1.302-1.105-1.302-2.86v-14.942h-3.48v15.65c0 2.49.735 4.953 4.33 4.953.99 0 1.924-.283 1.924-.283l-.68-2.604s-.368.085-.792.085zm5.04-12.736c1.104 0 2.095-.99 2.095-2.094 0-1.104-.99-2.094-2.095-2.094-1.103 0-2.094.99-2.094 2.094 0 1.104.99 2.094 2.094 2.094zm-1.698 1.641v13.613h3.396v-13.613zm19.807 5.774c0-3.708-1.131-6.085-5.008-6.085-1.528 0-3.113.396-4.698 1.189l-.51-.878h-2.433v13.613h3.48v-10.33c1.387-.51 2.463-.764 3.255-.764 1.698 0 2.434 1.189 2.434 2.83v8.264h3.48zm13.874-5.802l-.424 1.104c-1.16-.962-2.547-1.387-4.217-1.387-4.585 0-6.424 2.915-6.424 7.047s2.405 7.16 6.48 7.16c1.16 0 2.321-.283 3.51-.85v.142c0 3.481-.906 5.18-4.359 5.18-.962 0-2.122-.227-3.452-.708l-.566-.198-.934 2.518.538.227c1.5.622 3.14.877 4.782.877 4.811 0 7.472-2.745 7.472-7.16v-13.952zm-1.075 3.311v6.905c-.85.651-1.812.963-2.944.963-2.32 0-3.565-1.557-3.565-4.217 0-2.66.934-4.415 3.792-4.415 1.019 0 2.15.34 2.717.764zm14.467 7.104c-.736.452-1.556.792-2.802.792-1.245 0-2.264-.481-2.264-1.613 0-1.896 2.972-1.896 5.066-1.896zm0-5.123c-4.188 0-8.546.396-8.546 4.557 0 2.603 2.179 4.075 4.895 4.075 1.585 0 2.915-.396 3.962-1.217l.453.934h2.717v-8.405c0-3.934-2.01-5.519-6.254-5.519-1.783 0-4.047.425-4.726.877l.679 2.604c.877-.481 2.434-.906 3.509-.906 2.575 0 3.311.595 3.311 3zm11.823 5.831c-1.104 0-1.302-1.105-1.302-2.86v-14.942h-3.48v15.65c0 2.49.735 4.953 4.33 4.953.99 0 1.923-.283 1.923-.283l-.679-2.604s-.368.085-.792.085zm8.125 0c-1.104 0-1.302-1.105-1.302-2.86v-14.942h-3.48v15.65c0 2.49.735 4.953 4.33 4.953.99 0 1.924-.283 1.924-.283l-.68-2.604s-.367.085-.792.085zm10.276.056c-3.34 0-4.103-1.444-4.245-3.198h9.34v-1.33c0-4.443-2.095-6.934-6.17-6.934-4.047 0-6.68 3.17-6.68 7.103 0 4.415 2.718 7.104 7.302 7.104 1.811 0 3.566-.312 5.236-.85l-.68-2.603c-1.245.481-2.603.708-4.103.708zm-4.217-5.604c.17-1.641.878-3.17 3.198-3.17 1.698 0 2.632.991 2.632 3.17zm10.537-5.547l6.169 13.726-3.113 7.216h3.82l8.349-20.942h-3.594l-3.68 10.443-4.046-10.443zM42.549 509.858v3.028h8.49v-3.028zm26.484 8.151c-3.34 0-4.104-1.444-4.245-3.198h9.339v-1.33c0-4.443-2.094-6.934-6.17-6.934-4.047 0-6.678 3.17-6.678 7.103 0 4.415 2.716 7.104 7.3 7.104 1.812 0 3.567-.312 5.236-.85l-.679-2.603c-1.245.481-2.603.708-4.103.708zm-4.217-5.604c.17-1.641.877-3.17 3.198-3.17 1.698 0 2.632.991 2.632 3.17zm17.13 8.349c1.953 0 2.887-.481 4.386-1.274l.538.99h2.377v-13.612h-3.48v10.132c-.906.538-1.84.82-2.83.82-1.812 0-2.52-1.188-2.52-2.83v-8.122h-3.48v7.641c0 3.764 1.019 6.255 5.009 6.255zm10.912-13.896v13.613h3.396v-9.905c.793-.68 1.642-1.047 2.547-1.047.878 0 2.038.31 2.802.82l.707-3.254a5.927 5.927 0 0 0-2.518-.538c-1.444 0-2.802.594-4.075 1.755l-.425-1.444zm17.78 13.896c4.301 0 7.131-2.887 7.131-7.16 0-4.245-2.773-7.047-7.075-7.047-4.358 0-7.131 2.774-7.131 7.103 0 4.245 2.773 7.104 7.075 7.104zm0-11.49c2.349 0 3.65 1.953 3.65 4.386 0 2.49-1.216 4.387-3.65 4.387-2.32 0-3.594-1.981-3.594-4.387 0-2.348 1.273-4.386 3.594-4.386zm13.587 18.536v-7.867a7.521 7.521 0 0 0 3.425.82c4.075 0 6.48-3.027 6.48-7.16 0-4.131-1.67-7.046-5.858-7.046-1.84 0-3.34.538-4.641 1.274l-.708-.963h-2.179V527.8zm0-17.659c.68-.283 1.981-.764 3.198-.764 2.434 0 3.226 1.755 3.226 4.415s-1.245 4.217-3.565 4.217c-1.104 0-2.038-.283-2.859-.878zm20.267 7.104c-.736.452-1.557.792-2.802.792s-2.264-.481-2.264-1.613c0-1.896 2.971-1.896 5.066-1.896zm0-5.123c-4.189 0-8.547.396-8.547 4.557 0 2.603 2.18 4.075 4.896 4.075 1.585 0 2.915-.396 3.962-1.217l.453.934h2.716v-8.405c0-3.934-2.009-5.519-6.254-5.519-1.783 0-4.047.425-4.726.877l.68 2.604c.877-.481 2.433-.906 3.508-.906 2.576 0 3.312.595 3.312 3zm10.747 5.915c-1.953 0-3.283-.396-4.188-.736l-.595 2.632c1.019.425 2.745.82 5.15.82 4.02 0 6.283-1.244 6.283-3.933 0-5.122-7.697-3.99-7.697-6.028 0-1.019 1.415-1.528 2.632-1.528 2.15 0 3.113.453 4.047.906l.792-2.66c-1.019-.482-2.236-.963-4.896-.963-1.84 0-6.056.538-6.056 4.104 0 5.122 7.698 3.848 7.698 5.97 0 1.133-1.614 1.416-3.17 1.416zm16.945-.792c-.736.452-1.557.792-2.802.792s-2.264-.481-2.264-1.613c0-1.896 2.971-1.896 5.066-1.896zm0-5.123c-4.189 0-8.547.396-8.547 4.557 0 2.603 2.18 4.075 4.896 4.075 1.585 0 2.915-.396 3.962-1.217l.453.934h2.716v-8.405c0-3.934-2.009-5.519-6.254-5.519-1.783 0-4.047.425-4.726.877l.68 2.604c.877-.481 2.433-.906 3.508-.906 2.576 0 3.312.595 3.312 3zm14.426 5.123c-.736.452-1.557.792-2.802.792s-2.264-.481-2.264-1.613c0-1.896 2.972-1.896 5.066-1.896zm0-5.123c-4.188 0-8.547.396-8.547 4.557 0 2.603 2.18 4.075 4.896 4.075 1.585 0 2.915-.396 3.962-1.217l.453.934h2.717v-8.405c0-3.934-2.01-5.519-6.254-5.519-1.783 0-4.047.425-4.727.877l.68 2.604c.877-.481 2.433-.906 3.509-.906 2.575 0 3.31.595 3.31 3zm11.823 5.83c-1.104 0-1.302-1.104-1.302-2.858V500.15h-3.481v15.65c0 2.49.736 4.953 4.33 4.953.99 0 1.924-.283 1.924-.283l-.679-2.604s-.368.085-.792.085zM58.025 548.851v3.028h8.49v-3.028zm23.032 17.942v-7.867a7.521 7.521 0 0 0 3.424.82c4.075 0 6.48-3.027 6.48-7.16 0-4.131-1.669-7.046-5.857-7.046-1.84 0-3.34.538-4.642 1.274l-.707-.963h-2.18v20.942zm0-17.659c.679-.283 1.98-.764 3.198-.764 2.433 0 3.226 1.755 3.226 4.415s-1.245 4.217-3.566 4.217c-1.104 0-2.038-.283-2.858-.878zm19.134 10.613c4.302 0 7.132-2.887 7.132-7.16 0-4.245-2.774-7.047-7.075-7.047-4.359 0-7.132 2.773-7.132 7.103 0 4.245 2.773 7.104 7.075 7.104zm0-11.49c2.349 0 3.65 1.953 3.65 4.386 0 2.49-1.216 4.387-3.65 4.387-2.32 0-3.594-1.981-3.594-4.387 0-2.349 1.273-4.386 3.594-4.386zm16.361 11.49c4.302 0 7.132-2.887 7.132-7.16 0-4.245-2.774-7.047-7.075-7.047-4.359 0-7.132 2.773-7.132 7.103 0 4.245 2.773 7.104 7.075 7.104zm0-11.49c2.349 0 3.65 1.953 3.65 4.386 0 2.49-1.216 4.387-3.65 4.387-2.32 0-3.594-1.981-3.594-4.387 0-2.349 1.273-4.386 3.594-4.386zm14.889 8.688c-1.103 0-1.302-1.104-1.302-2.858v-14.943h-3.48v15.65c0 2.49.735 4.953 4.33 4.953.99 0 1.924-.283 1.924-.283l-.68-2.604s-.367.085-.792.085zm-57.939 30.899v3.028h8.49v-3.028zm21.701 10.613l.68-.878c1.358.793 2.716 1.16 4.103 1.16 4.075 0 6.48-3.028 6.48-7.16 0-4.131-1.67-7.046-5.858-7.046a8.789 8.789 0 0 0-4.103.99v-7.386h-3.481v20.32zm1.302-10.33c.68-.283 2.01-.764 3.254-.764 2.434 0 3.227 1.755 3.227 4.415s-1.246 4.216-3.566 4.216c-1.132 0-2.094-.283-2.915-.933zm20.295 7.103c-.736.453-1.557.793-2.802.793s-2.264-.481-2.264-1.613c0-1.896 2.971-1.896 5.066-1.896zm0-5.122c-4.189 0-8.547.396-8.547 4.556 0 2.604 2.18 4.076 4.896 4.076 1.585 0 2.915-.397 3.962-1.217l.453.934h2.716v-8.406c0-3.933-2.009-5.518-6.254-5.518-1.783 0-4.047.424-4.726.877l.68 2.604c.877-.481 2.433-.906 3.508-.906 2.576 0 3.312.595 3.312 3zm7.011-5.264v13.613h3.396v-9.905c.793-.68 1.642-1.048 2.547-1.048.878 0 2.038.312 2.802.821l.708-3.254a5.927 5.927 0 0 0-2.52-.538c-1.442 0-2.8.594-4.074 1.755l-.425-1.444zm21.245 13.896c1.16 0 2.179-1.02 2.179-2.18 0-1.16-1.019-2.179-2.18-2.179-1.16 0-2.178 1.02-2.178 2.18 0 1.16 1.019 2.179 2.179 2.179zm8.014 0c1.16 0 2.18-1.02 2.18-2.18 0-1.16-1.02-2.179-2.18-2.179-1.16 0-2.179 1.02-2.179 2.18 0 1.16 1.02 2.179 2.18 2.179zm8.015 0c1.16 0 2.18-1.02 2.18-2.18 0-1.16-1.02-2.179-2.18-2.179-1.16 0-2.179 1.02-2.179 2.18 0 1.16 1.019 2.179 2.18 2.179z" fill="#999"/>
</svg>
